# xmcd
#
# Track frame offsets:
#	150
#	16840
#	34171
#	53815
#	80314
#	95667
#	117763
#	139748
#	150559
#	165829
#	190572
#	209921
#	224259
#	239584
#	254018
#	272352
#	292024
#
# Disc length: 3902 seconds
#
# Revision: 0
# Processed by: cddbd v1.4PL0 Copyright (c) Steve Scherf et al.
# Submitted via: audiograbber 1.81.02
#
DISCID=ee0f3c11
DTITLE=ANNÂWEECH - MACH NÔÔRE
DYEAR=1999
DGENRE=Blues
TTITLE0=Mach nôôre
TTITLE1=Waasch ebbes
TTITLE2=Endâmärdor
TTITLE3=Kaffeefahrt
TTITLE4=Soggâhopf
TTITLE5=I môôch di
TTITLE6=Herrgottnochâmôl
TTITLE7=Mei Gosch duâd weh
TTITLE8=Hohâloher Land
TTITLE9=Klassâtreffâ
TTITLE10=Eiwâ un ueiwâ
TTITLE11=Bei uns vorkummt nix
TTITLE12='S Liad vom hübschâ Karl
TTITLE13=Zukunftstraum
TTITLE14=Reechâtropfâ
TTITLE15=Werbung
TTITLE16=Mitteilung
EXTD=
EXTT0=
EXTT1=
EXTT2=
EXTT3=
EXTT4=
EXTT5=
EXTT6=
EXTT7=
EXTT8=
EXTT9=
EXTT10=
EXTT11=
EXTT12=
EXTT13=
EXTT14=
EXTT15=
EXTT16=
PLAYORDER=
